<?xml version="1.0" encoding="UTF-8" standalone="no"?><!DOCTYPE svg PUBLIC "-//W3C//DTD SVG 1.1//EN" "http://www.w3.org/Graphics/SVG/1.1/DTD/svg11.dtd"><svg width="100%" height="100%" viewBox="0 0 2134 2134" version="1.1" xmlns="http://www.w3.org/2000/svg" xmlns:xlink="http://www.w3.org/1999/xlink" xml:space="preserve" xmlns:serif="http://www.serif.com/" style="fill-rule:evenodd;clip-rule:evenodd;stroke-linejoin:round;stroke-miterlimit:2;"><path d="M69.333,1453.6c1.167,14.667 11.8,26.833 26.2,29.933l116.167,25.067c4.1,19.8 9.3,39.333 15.6,58.4l-87.933,79.667c-10.9,9.866 -14.034,25.733 -7.7,39.033c16.066,33.8 33.966,65.033 53.2,92.833c8.333,12.067 23.6,17.267 37.633,12.767l112.9,-36.367c13.5,15.134 27.867,29.5 43,43l-36.367,112.9c-4.5,13.967 0.667,29.267 12.767,37.634c27.8,19.233 59.033,37.133 92.833,53.2c13.334,6.333 29.167,3.166 39.034,-7.7l79.666,-87.934c19.1,6.267 38.634,11.5 58.434,15.6l25.066,116.167c3.1,14.367 15.267,25 29.9,26.2c17.734,1.4 35.5,2.667 53.6,2.667c18.1,0 35.867,-1.267 53.6,-2.667c14.667,-1.167 26.834,-11.8 29.934,-26.2l25.066,-116.167c19.8,-4.1 39.367,-9.3 58.434,-15.6l79.666,87.934c9.9,10.9 25.767,14.066 39.034,7.7c33.8,-16.067 65.033,-34 92.833,-53.2c12.1,-8.367 17.267,-23.667 12.767,-37.634l-36.367,-112.9c15.133,-13.5 29.5,-27.866 43,-42.966l112.9,36.366c13.967,4.534 29.267,-0.666 37.633,-12.766c19.234,-27.8 37.134,-59.034 53.2,-92.834c6.334,-13.3 3.2,-29.166 -7.7,-39.033l-87.933,-79.667c6.267,-19.1 11.5,-38.633 15.6,-58.433l116.167,-25.067c14.366,-3.1 25,-15.266 26.2,-29.9c1.366,-17.766 2.633,-35.533 2.633,-53.633c0,-18.1 -1.267,-35.867 -2.667,-53.6c-1.166,-14.667 -11.8,-26.833 -26.2,-29.933l-116.166,-25.067c-4.1,-19.8 -9.3,-39.367 -15.6,-58.433l87.933,-79.667c10.9,-9.867 14.033,-25.733 7.7,-39.033c-16.067,-33.8 -34,-65.034 -53.2,-92.834c-8.367,-12.1 -23.667,-17.3 -37.633,-12.766l-112.9,36.366c-13.5,-15.133 -27.867,-29.5 -43,-43l36.366,-112.9c4.5,-13.966 -0.666,-29.266 -12.766,-37.633c-27.8,-19.233 -59.034,-37.133 -92.834,-53.2c-13.333,-6.367 -29.166,-3.2 -39.033,7.7l-79.667,87.933c-19.1,-6.266 -38.633,-11.5 -58.433,-15.6l-25.067,-116.166c-3.1,-14.367 -15.266,-25 -29.9,-26.2c-35.5,-2.867 -71.733,-2.8 -107.233,0c-14.667,1.166 -26.833,11.8 -29.933,26.2l-25.067,116.166c-19.8,4.1 -39.333,9.3 -58.4,15.6l-79.667,-87.933c-9.866,-10.9 -25.7,-14.033 -39.033,-7.7c-33.8,16.067 -65.033,33.967 -92.833,53.2c-12.1,8.367 -17.267,23.667 -12.767,37.633l36.367,112.9c-15.134,13.5 -29.5,27.867 -43,43l-112.867,-36.366c-14,-4.534 -29.3,0.666 -37.633,12.766c-19.234,27.8 -37.134,59.034 -53.2,92.834c-6.334,13.3 -3.2,29.166 7.7,39.033l87.933,79.667c-6.267,19.1 -11.5,38.633 -15.6,58.433l-116.167,25.067c-14.366,3.1 -25,15.266 -26.2,29.9c-1.4,17.766 -2.666,35.533 -2.666,53.633c0,18.1 1.266,35.867 2.666,53.6Zm64.7,-77.233l113.4,-24.5c13.4,-2.9 23.667,-13.7 25.867,-27.234c5,-30.733 13.067,-60.9 23.967,-89.7c4.866,-12.8 1.366,-27.3 -8.8,-36.5l-85.634,-77.6c7.467,-14.3 15.267,-28 23.334,-40.966l109.866,35.4c13,4.166 27.334,0 36.034,-10.6c19.666,-24.067 41.866,-46.234 65.933,-65.934c10.6,-8.666 14.833,-22.966 10.6,-36.033l-35.4,-109.867c12.967,-8.1 26.633,-15.9 40.967,-23.333l77.6,85.667c9.233,10.166 23.766,13.666 36.533,8.8c28.733,-10.9 58.9,-18.967 89.667,-23.967c13.533,-2.2 24.333,-12.467 27.233,-25.867l24.467,-113.4c15.7,-0.833 31.666,-0.866 47.3,0l24.5,113.4c2.9,13.4 13.7,23.667 27.233,25.867c30.733,5 60.9,13.067 89.7,23.967c12.733,4.866 27.267,1.4 36.5,-8.8l77.6,-85.634c14.3,7.467 28,15.267 40.967,23.334l-35.4,109.866c-4.2,13.067 0,27.334 10.6,36.034c24.066,19.666 46.233,41.866 65.933,65.933c8.7,10.633 23,14.867 36.033,10.6l109.867,-35.4c8.1,12.967 15.9,26.633 23.333,40.933l-85.666,77.6c-10.167,9.2 -13.667,23.7 -8.8,36.534c10.9,28.733 18.966,58.9 23.966,89.666c2.2,13.534 12.467,24.334 25.867,27.234l113.4,24.466c0.433,7.834 0.733,15.734 0.733,23.667c0,7.933 -0.266,15.833 -0.7,23.633l-113.4,24.5c-13.4,2.9 -23.666,13.7 -25.866,27.234c-5,30.733 -13.067,60.9 -23.967,89.7c-4.867,12.8 -1.367,27.3 8.8,36.5l85.633,77.6c-7.466,14.3 -15.266,28 -23.333,40.966l-109.867,-35.4c-13.1,-4.266 -27.333,-0.033 -36.033,10.6c-19.633,24 -41.833,46.2 -65.933,65.934c-10.6,8.666 -14.8,22.966 -10.6,36l35.4,109.866c-12.967,8.1 -26.634,15.9 -40.934,23.334l-77.6,-85.667c-9.2,-10.167 -23.7,-13.6 -36.533,-8.8c-28.733,10.9 -58.9,18.967 -89.667,23.967c-13.533,2.2 -24.333,12.466 -27.233,25.866l-24.467,113.4c-15.7,0.834 -31.666,0.867 -47.3,0l-24.5,-113.4c-2.9,-13.4 -13.7,-23.666 -27.233,-25.866c-30.733,-5 -60.9,-13.067 -89.7,-23.967c-12.767,-4.867 -27.3,-1.4 -36.5,8.8l-77.6,85.633c-14.3,-7.466 -28,-15.266 -40.967,-23.333l35.4,-109.867c4.2,-13.066 0,-27.333 -10.6,-36.033c-24.066,-19.667 -46.233,-41.867 -65.933,-65.933c-8.7,-10.634 -23.033,-14.834 -36.033,-10.6l-109.867,35.4c-8.1,-12.967 -15.9,-26.634 -23.333,-40.967l85.666,-77.6c10.167,-9.2 13.667,-23.7 8.8,-36.533c-10.9,-28.734 -18.966,-58.9 -23.966,-89.667c-2.2,-13.533 -12.467,-24.333 -25.867,-27.233l-113.467,-24.4c-0.4,-7.834 -0.7,-15.734 -0.7,-23.667c0,-7.933 0.267,-15.833 0.7,-23.633Z" style="fill:#140a5d;fill-rule:nonzero;"/><path d="M1807.3,541.167c12.533,-3.934 21.6,-14.9 23.1,-27.967c2,-16.833 2.933,-32.067 2.933,-46.533c0,-14.467 -0.933,-29.7 -2.9,-46.534c-1.5,-13.066 -10.566,-24.033 -23.1,-27.966l-92.433,-29.034c-2.767,-7.566 -5.833,-15 -9.2,-22.266l44.8,-85.834c6.067,-11.633 4.733,-25.766 -3.4,-36.1c-19.3,-24.4 -41.5,-46.6 -65.967,-65.966c-10.333,-8.167 -24.466,-9.467 -36.1,-3.434l-85.9,44.8c-7.266,-3.333 -14.7,-6.4 -22.266,-9.166l-29.034,-92.434c-3.933,-12.533 -14.9,-21.6 -27.966,-23.1c-33.734,-3.933 -59.367,-3.933 -93.1,0c-13.067,1.5 -24.034,10.567 -27.967,23.1l-29.033,92.434c-7.567,2.766 -15,5.833 -22.267,9.2l-85.833,-44.8c-11.634,-6.034 -25.734,-4.734 -36.1,3.4c-24.4,19.3 -46.6,41.5 -65.967,65.966c-8.167,10.334 -9.5,24.434 -3.433,36.1l44.766,85.834c-3.333,7.266 -6.4,14.7 -9.166,22.266l-92.434,29.034c-12.533,3.933 -21.6,14.9 -23.1,27.966c-1.966,16.834 -2.9,32.067 -2.9,46.534c0,14.466 0.934,29.7 2.9,46.533c1.5,13.067 10.567,24.033 23.1,27.967l92.434,29.033c2.766,7.567 5.833,15 9.2,22.267l-44.8,85.833c-6.067,11.633 -4.734,25.767 3.4,36.1c19.3,24.4 41.5,46.6 65.966,65.967c10.3,8.166 24.467,9.466 36.1,3.433l85.834,-44.767c7.266,3.334 14.7,6.4 22.266,9.167l29.034,92.433c3.933,12.534 14.9,21.6 27.966,23.1c16.9,2 32.134,2.934 46.6,2.934c14.467,0 29.7,-0.934 46.534,-2.9c13.066,-1.5 24.033,-10.567 27.966,-23.1l29.034,-92.434c7.566,-2.766 15,-5.833 22.266,-9.2l85.834,44.8c11.633,6.067 25.766,4.767 36.1,-3.4c24.4,-19.3 46.6,-41.5 65.966,-65.966c8.167,-10.334 9.5,-24.434 3.434,-36.1l-44.8,-85.834c3.366,-7.266 6.433,-14.7 9.2,-22.266l92.433,-29.1Zm-128.667,-29.467c-10.533,3.333 -18.733,11.633 -21.933,22.233c-4.533,15.067 -10.533,29.567 -17.8,43.134c-5.233,9.733 -5.333,21.433 -0.2,31.2l42.3,81.066c-7.9,8.767 -16.267,17.134 -25,25l-81.067,-42.3c-9.8,-5.133 -21.5,-5 -31.2,0.2c-13.566,7.267 -28.066,13.267 -43.133,17.8c-10.567,3.167 -18.9,11.4 -22.233,21.934l-27.467,87.466c-12.167,0.734 -22.933,0.734 -35.133,0l-27.467,-87.466c-3.333,-10.534 -11.633,-18.734 -22.233,-21.934c-15.1,-4.533 -29.6,-10.533 -43.1,-17.8c-9.734,-5.233 -21.434,-5.333 -31.234,-0.2l-81.066,42.3c-8.767,-7.9 -17.134,-16.266 -25,-25l42.3,-81.066c5.1,-9.767 5.033,-21.5 -0.2,-31.2c-7.267,-13.567 -13.267,-28.067 -17.8,-43.134c-3.167,-10.566 -11.4,-18.9 -21.934,-22.233l-87.466,-27.467c-0.4,-6.1 -0.567,-11.933 -0.567,-17.566c0,-5.634 0.167,-11.467 0.567,-17.567l87.466,-27.467c10.534,-3.333 18.734,-11.633 21.934,-22.233c4.533,-15.1 10.533,-29.6 17.8,-43.1c5.233,-9.733 5.333,-21.433 0.2,-31.233l-42.3,-81.067c7.9,-8.767 16.266,-17.133 25,-25l81.066,42.3c9.767,5.1 21.5,5 31.2,-0.2c13.567,-7.267 28.067,-13.267 43.134,-17.8c10.566,-3.167 18.9,-11.4 22.233,-21.933l27.467,-87.467c12.166,-0.733 22.933,-0.733 35.133,0l27.467,87.467c3.333,10.533 11.633,18.733 22.233,21.933c15.1,4.533 29.6,10.533 43.1,17.8c9.733,5.233 21.433,5.333 31.233,0.2l81.067,-42.3c8.767,7.9 17.133,16.267 25,25l-42.3,81.067c-5.1,9.766 -5.033,21.5 0.2,31.2c7.267,13.566 13.267,28.066 17.8,43.133c3.167,10.567 11.4,18.9 21.933,22.233l87.467,27.467c0.4,6.1 0.567,11.933 0.567,17.567c0,5.633 -0.167,11.466 -0.567,17.566l-87.467,27.467Z" style="fill:#140a5d;fill-rule:nonzero;"/><path d="M2042.07,1165.47l-57.267,-20.334c-3.267,-9.3 -7,-18.4 -11.233,-27.233l26.033,-54.833c5.433,-11.4 3.933,-24.867 -3.867,-34.8c-16.666,-21.3 -35.933,-40.6 -57.3,-57.334c-9.966,-7.8 -23.5,-9.266 -34.833,-3.866l-54.867,26.033c-8.8,-4.2 -17.9,-7.967 -27.2,-11.2l-20.366,-57.267c-4.234,-11.9 -14.867,-20.4 -27.4,-21.933c-29.7,-3.567 -51.2,-3.567 -80.9,0c-12.534,1.5 -23.167,10 -27.4,21.933l-20.334,57.267c-9.3,3.267 -18.4,7 -27.233,11.233l-54.833,-26.033c-11.334,-5.4 -24.834,-3.9 -34.8,3.867c-21.3,16.666 -40.6,35.933 -57.334,57.3c-7.766,9.933 -9.266,23.433 -3.866,34.833l26.033,54.867c-4.2,8.8 -7.967,17.9 -11.2,27.2l-57.267,20.366c-11.9,4.234 -20.4,14.867 -21.933,27.4c-1.833,14.767 -2.7,28 -2.7,40.4c0,12.4 0.867,25.6 2.667,40.434c1.5,12.533 10,23.166 21.933,27.4l57.267,20.333c3.266,9.3 7,18.4 11.233,27.233l-26.033,54.834c-5.434,11.4 -3.934,24.866 3.866,34.8c16.667,21.3 35.934,40.6 57.3,57.333c9.934,7.767 23.467,9.267 34.834,3.867l54.866,-26.034c8.8,4.2 17.9,7.967 27.2,11.2l20.367,57.267c4.233,11.9 14.867,20.4 27.4,21.933c14.833,1.867 28.033,2.734 40.433,2.734c12.4,0 25.6,-0.867 40.434,-2.667c12.533,-1.5 23.166,-10 27.4,-21.933l20.333,-57.267c9.3,-3.267 18.4,-7 27.233,-11.233l54.834,26.033c11.366,5.433 24.9,3.967 34.8,-3.867c21.3,-16.666 40.6,-35.933 57.333,-57.3c7.767,-9.933 9.267,-23.433 3.867,-34.833l-26.034,-54.867c4.2,-8.8 7.967,-17.9 11.2,-27.2l57.267,-20.366c11.9,-4.234 20.4,-14.867 21.933,-27.4c1.867,-14.834 2.734,-28.034 2.734,-40.434c0,-12.4 -0.867,-25.6 -2.667,-40.433c-1.5,-12.567 -10,-23.167 -21.933,-27.433Zm-42.4,80.033l-52.834,18.767c-10.233,3.633 -18.066,12.033 -20.966,22.5c-4.367,15.833 -10.6,30.933 -18.5,44.9c-5.334,9.433 -5.734,20.9 -1.1,30.7l23.933,50.433c-5.533,6.067 -11.333,11.867 -17.367,17.367l-50.433,-23.934c-9.733,-4.633 -21.233,-4.233 -30.7,1.1c-14,7.934 -29.1,14.134 -44.867,18.5c-10.466,2.9 -18.866,10.734 -22.533,20.967l-18.767,52.833c-8.066,0.434 -16.266,0.434 -24.333,0l-18.767,-52.833c-3.633,-10.233 -12.033,-18.067 -22.5,-20.967c-15.833,-4.366 -30.933,-10.6 -44.9,-18.5c-9.433,-5.3 -20.866,-5.7 -30.7,-1.1l-50.433,23.934c-6.067,-5.534 -11.867,-11.334 -17.367,-17.367l23.934,-50.433c4.666,-9.8 4.233,-21.267 -1.1,-30.7c-7.934,-14 -14.134,-29.1 -18.5,-44.867c-2.9,-10.467 -10.734,-18.867 -20.967,-22.533l-52.833,-18.767c-0.267,-4.033 -0.4,-8.067 -0.4,-12.167c0,-4.1 0.133,-8.166 0.333,-12.166l52.833,-18.8c10.234,-3.634 18.067,-12.034 20.934,-22.5c4.4,-15.867 10.633,-30.934 18.533,-44.9c5.333,-9.434 5.733,-20.9 1.1,-30.7l-23.933,-50.434c5.533,-6.066 11.333,-11.866 17.366,-17.366l50.434,23.933c9.8,4.667 21.266,4.267 30.7,-1.1c14,-7.933 29.1,-14.133 44.866,-18.5c10.467,-2.9 18.867,-10.733 22.534,-20.967l18.766,-52.833c8.067,-0.433 16.267,-0.433 24.334,0l18.766,52.833c3.634,10.234 12.034,18.067 22.5,20.967c15.834,4.367 30.934,10.6 44.9,18.5c9.467,5.367 20.9,5.767 30.7,1.1l50.434,-23.933c6.066,5.533 11.866,11.333 17.366,17.366l-23.933,50.434c-4.667,9.8 -4.233,21.266 1.1,30.7c7.933,14 14.133,29.1 18.5,44.866c2.9,10.467 10.733,18.867 20.967,22.534l52.833,18.766c0.267,4.067 0.4,8.1 0.4,12.2c0,4.1 -0.133,8.134 -0.333,12.167Z" style="fill:#140a5d;fill-rule:nonzero;"/><path d="M733.333,1766.67c202.167,0 366.667,-164.5 366.667,-366.667c0,-202.167 -164.5,-366.667 -366.667,-366.667c-202.166,0 -366.666,164.5 -366.666,366.667c0,202.167 164.5,366.667 366.666,366.667Zm0,-666.667c165.4,0 300,134.6 300,300c0,165.4 -134.6,300 -300,300c-165.4,0 -300,-134.6 -300,-300c0,-165.4 134.6,-300 300,-300Z" style="fill:#140a5d;fill-rule:nonzero;"/><path d="M67.4,845.3l51.2,42.7c152.633,-183.033 376.667,-288 614.733,-288c16.967,0 33.9,0.967 50.834,2.033l-41.067,41.067l47.133,47.133l100,-100c13.034,-13.033 13.034,-34.1 0,-47.133l-100,-100l-47.133,47.133l45.3,45.3c-18.333,-1.166 -36.7,-2.2 -55.067,-2.2c-257.866,0 -500.6,113.7 -665.933,311.967Z" style="fill:#140a5d;fill-rule:nonzero;"/><path d="M1433.33,300c-91.9,0 -166.666,74.767 -166.666,166.667c0,91.9 74.766,166.666 166.666,166.666c91.9,0 166.667,-74.766 166.667,-166.666c0,-91.9 -74.767,-166.667 -166.667,-166.667Zm0,266.667c-55.133,0 -100,-44.867 -100,-100c0,-55.134 44.867,-100 100,-100c55.134,0 100,44.866 100,100c0,55.133 -44.866,100 -100,100Z" style="fill:#140a5d;fill-rule:nonzero;"/><path d="M1733.33,1100c-73.533,0 -133.333,59.8 -133.333,133.333c0,73.534 59.8,133.334 133.333,133.334c73.534,0 133.334,-59.8 133.334,-133.334c0,-73.533 -59.8,-133.333 -133.334,-133.333Zm0,200c-36.766,0 -66.666,-29.9 -66.666,-66.667c0,-36.766 29.9,-66.666 66.666,-66.666c36.767,0 66.667,29.9 66.667,66.666c0,36.767 -29.9,66.667 -66.667,66.667Z" style="fill:#140a5d;fill-rule:nonzero;"/><path d="M2039.87,167.333l-166.667,-33.333c-18.133,-3.667 -35.633,8.1 -39.233,26.133l-33.334,166.667l65.367,13.1l17.967,-89.733c32.3,67.2 49.366,141.266 49.366,216.5c0,114.933 -37.933,223 -109.666,312.5l52.033,41.7c80.167,-100.034 124.3,-225.8 124.3,-354.2c0,-87.3 -20.167,-173.367 -58.533,-251.034l85.333,17.067l13.067,-65.367Z" style="fill:#140a5d;fill-rule:nonzero;"/></svg>