<?xml version="1.0" encoding="UTF-8" standalone="no"?><!DOCTYPE svg PUBLIC "-//W3C//DTD SVG 1.1//EN" "http://www.w3.org/Graphics/SVG/1.1/DTD/svg11.dtd"><svg width="100%" height="100%" viewBox="0 0 2134 2134" version="1.1" xmlns="http://www.w3.org/2000/svg" xmlns:xlink="http://www.w3.org/1999/xlink" xml:space="preserve" xmlns:serif="http://www.serif.com/" style="fill-rule:evenodd;clip-rule:evenodd;stroke-linejoin:round;stroke-miterlimit:2;"><g id="Bitcoin-6"><path d="M1751.8,1159.13l107.867,-138.666c4.551,-5.851 7.023,-13.055 7.023,-20.467c0,-18.286 -15.047,-33.333 -33.334,-33.333c-0.007,0 -0.015,0 -0.023,0l-100,0l0,-333.334c-0.146,-127.947 -105.385,-233.187 -233.333,-233.333l-519.667,0c-58.614,-197.484 -241.378,-333.884 -447.377,-333.884c-256.006,0 -466.667,210.661 -466.667,466.667c0,198.875 127.13,376.887 315.244,441.417l-107.866,138.667c-4.551,5.85 -7.023,13.054 -7.023,20.466c0,18.286 15.047,33.334 33.333,33.334c0.008,0 0.015,0 0.023,0l100,0l0,333.333c0.146,127.948 105.386,233.187 233.333,233.333l519.667,0c58.614,197.484 241.379,333.884 447.377,333.884c256.006,0 466.667,-210.661 466.667,-466.667c0,-198.875 -127.129,-376.886 -315.244,-441.417Zm-598.267,307.534l-453.533,0c-18.286,0 -33.333,-15.048 -33.333,-33.334l0,-266.666l100,0c0.007,0 0.015,0 0.023,0c18.286,0 33.333,-15.048 33.333,-33.334c0,-7.412 -2.472,-14.616 -7.023,-20.466l-107.867,-138.667c141.53,-49.619 251.138,-164.014 294.667,-307.533l453.533,0c18.286,0 33.334,15.047 33.334,33.333l0,266.667l-100,0c-0.008,0 -0.016,0 -0.023,0c-18.287,0 -33.334,15.047 -33.334,33.333c0,7.412 2.472,14.616 7.023,20.467l107.867,138.666c-141.53,49.619 -251.138,164.014 -294.667,307.534Zm-620.2,-666.667c-146.289,0 -266.666,-120.378 -266.666,-266.667c0,-146.289 120.377,-266.666 266.666,-266.666c146.289,0 266.667,120.377 266.667,266.666c-0.164,146.227 -120.44,266.503 -266.667,266.667Zm1066.67,533.333c146.289,0 266.667,120.378 266.667,266.667c0,146.289 -120.378,266.667 -266.667,266.667c-146.289,0 -266.667,-120.378 -266.667,-266.667c0.165,-146.227 120.44,-266.502 266.667,-266.667Zm-100,-866.666c91.389,0.109 166.557,75.277 166.667,166.666l0,366.667c0,18.286 15.047,33.333 33.333,33.333l65.2,0l-165.2,212.367l-165.2,-212.367l65.2,0c18.286,0 33.333,-15.047 33.333,-33.333l0,-300c0,-54.858 -45.141,-100 -100,-100l-438.6,0c3.386,-22.063 5.147,-44.345 5.267,-66.667c-0.168,-22.321 -1.95,-44.602 -5.333,-66.666l505.333,0Zm-1366.67,66.666c0,-0.135 0,-0.271 0,-0.406c0,-219.434 180.567,-400 400,-400c219.434,0 400,180.566 400,400c0,178.73 -119.791,336.79 -291.866,385.106l-44.8,-57.566c156.157,-30.221 270,-168.207 270,-327.262c0,-182.861 -150.472,-333.333 -333.334,-333.333c-182.861,0 -333.333,150.472 -333.333,333.333c0,159.055 113.843,297.041 270,327.262l-44.8,57.566c-171.482,-48.961 -290.904,-206.368 -291.867,-384.7Zm500,1133.33c-91.389,-0.11 -166.557,-75.278 -166.666,-166.667l0,-366.667c0,-18.286 -15.048,-33.333 -33.334,-33.333l-65.2,0l165.2,-212.367l165.2,212.367l-65.2,0c-18.286,0 -33.333,15.047 -33.333,33.333l0,300c0,54.859 45.142,100 100,100l438.6,0c-3.386,22.064 -5.146,44.346 -5.267,66.667c0.168,22.322 1.95,44.602 5.334,66.667l-505.334,0Zm966.667,333.333c-0.082,0 -0.164,0 -0.246,0c-219.306,0 -399.767,-180.461 -399.767,-399.767c0,-178.695 119.815,-336.708 291.88,-384.933l44.8,57.567c-156.158,30.22 -270,168.206 -270,327.261c0,182.861 150.472,333.333 333.333,333.333c182.861,0 333.333,-150.472 333.333,-333.333c0,-159.055 -113.842,-297.041 -270,-327.261l44.8,-57.567c172.065,48.225 291.88,206.238 291.88,384.933c0,219.306 -180.461,399.767 -399.767,399.767c-0.082,0 -0.164,0 -0.246,0Z" style="fill:#140a5d;fill-rule:nonzero;"/><path d="M603.713,700.005l-0.002,33.334c-0.002,18.286 -15.05,33.332 -33.336,33.33c-18.286,-0.001 -33.332,-15.05 -33.331,-33.336l0.003,-33.333l-33.334,-0.003l-0.002,33.334c-0.002,18.286 -15.05,33.332 -33.336,33.33c-18.286,-0.001 -33.332,-15.049 -33.331,-33.335l0.003,-33.334l-33.334,-0.002c-18.286,-0.002 -33.332,-15.05 -33.33,-33.336c0.001,-18.286 15.049,-33.332 33.336,-33.331l33.333,0.003l0.016,-200l-33.334,-0.003c-18.286,-0.001 -33.332,-15.05 -33.331,-33.336c0.002,-18.286 15.05,-33.332 33.336,-33.331l33.334,0.003l0.002,-33.333c0.002,-18.287 15.05,-33.333 33.336,-33.331c18.286,0.001 33.332,15.05 33.331,33.336l-0.003,33.333l33.334,0.003l0.002,-33.334c0.002,-18.286 15.05,-33.332 33.336,-33.33c18.286,0.001 33.332,15.049 33.331,33.336l-0.003,33.333c0.147,-0.001 0.294,-0.001 0.441,-0.001c54.621,0.004 99.563,44.954 99.559,99.574c-0.002,24.82 -9.284,48.764 -26.013,67.099c16.726,18.338 26.004,42.284 26.002,67.103c-0.004,54.621 -44.953,99.563 -99.574,99.559c-0.147,0 -0.294,0 -0.441,-0.001Zm33.342,-99.997c0.001,-18.286 -15.045,-33.335 -33.331,-33.336l-100,-0.008l-0.005,66.667l100,0.008c18.286,0.001 33.334,-15.045 33.336,-33.331Zm-33.321,-166.669l-100,-0.008l-0.005,66.666l100,0.008c18.286,0.002 33.334,-15.044 33.336,-33.331c0.001,-18.286 -15.045,-33.334 -33.331,-33.335Z" style="fill:#140a5d;fill-rule:nonzero;"/><path d="M1600,1700c-40.7,0 -66.667,-19.733 -66.667,-33.333c0,-18.286 -15.047,-33.334 -33.333,-33.334c-18.286,0 -33.333,15.048 -33.333,33.334c0,47.366 41.966,85.7 100,96.666l0,36.667c0,18.286 15.047,33.333 33.333,33.333c18.286,0 33.333,-15.047 33.333,-33.333l0,-36.667c58.034,-10.9 100,-49.233 100,-96.666c0,-56.067 -58.566,-100 -133.333,-100c-40.7,0 -66.667,-19.734 -66.667,-33.334c0,-13.6 25.967,-33.333 66.667,-33.333c40.7,0 66.667,19.733 66.667,33.333c0,18.286 15.047,33.334 33.333,33.334c18.286,0 33.333,-15.048 33.333,-33.334c0,-47.366 -41.966,-85.7 -100,-96.666l0,-36.667c0,-18.286 -15.047,-33.333 -33.333,-33.333c-18.286,0 -33.333,15.047 -33.333,33.333l0,36.667c-58.034,10.9 -100,49.233 -100,96.666c0,56.067 58.566,100 133.333,100c40.7,0 66.667,19.734 66.667,33.334c0,13.6 -25.967,33.333 -66.667,33.333Z" style="fill:#140a5d;fill-rule:nonzero;"/></g></svg>