<?xml version="1.0" encoding="UTF-8" standalone="no"?><!DOCTYPE svg PUBLIC "-//W3C//DTD SVG 1.1//EN" "http://www.w3.org/Graphics/SVG/1.1/DTD/svg11.dtd"><svg width="100%" height="100%" viewBox="0 0 2030 2030" version="1.1" xmlns="http://www.w3.org/2000/svg" xmlns:xlink="http://www.w3.org/1999/xlink" xml:space="preserve" xmlns:serif="http://www.serif.com/" style="fill-rule:evenodd;clip-rule:evenodd;stroke-linejoin:round;stroke-miterlimit:2;"><path d="M1041.07,1107.43c-3.754,-0.813 -7.606,-0.959 -11.409,-0.39c-38.111,-4.437 -66.861,-36.681 -66.926,-75.036c0,-18.381 -14.903,-33.284 -33.284,-33.284c-18.381,0 -33.284,14.903 -33.284,33.284c0.097,64.049 42.938,120.151 104.696,137.102l0,33.284c0,18.381 14.903,33.285 33.284,33.285c18.381,0 33.284,-14.904 33.284,-33.285l0,-31.269c71.281,-14.919 119.729,-81.309 112.237,-153.744c-7.509,-72.435 -68.535,-127.481 -141.361,-127.497c-41.735,0 -75.572,-33.837 -75.572,-75.572c0,-41.735 33.837,-75.572 75.572,-75.572c41.736,0 75.572,33.837 75.572,75.572c0,18.381 14.903,33.284 33.285,33.284c18.381,0 33.284,-14.903 33.284,-33.284c-0.098,-67.251 -47.212,-125.255 -113.017,-139.134l0,-30.294c0,-18.381 -14.903,-33.284 -33.284,-33.284c-18.381,0 -33.284,14.903 -33.284,33.284l0,32.326c-68.682,18.754 -112.887,85.437 -103.428,156.003c9.458,70.566 69.672,123.239 140.872,123.223c41.183,0 74.776,32.975 75.524,74.142c0.763,41.166 -31.611,75.361 -72.761,76.856Z" style="fill-rule:nonzero;"/><path d="M555.658,925.717c0,266.566 216.087,482.653 482.653,482.653c266.566,0 482.654,-216.087 482.654,-482.653c0,-266.566 -216.088,-482.654 -482.654,-482.654c-266.436,0.293 -482.344,216.218 -482.653,482.654Zm482.653,-416.085c229.804,0 416.085,186.281 416.085,416.085c0,229.804 -186.281,416.084 -416.085,416.084c-229.804,0 -416.085,-186.28 -416.085,-416.084c0.26,-229.691 186.395,-415.825 416.085,-416.085Z" style="fill:#140a5d;fill-rule:nonzero;"/><path d="M1041.07,1107.43c-3.754,-0.813 -7.606,-0.959 -11.409,-0.39c-38.111,-4.437 -66.861,-36.681 -66.926,-75.036c0,-18.381 -14.903,-33.284 -33.284,-33.284c-18.381,0 -33.284,14.903 -33.284,33.284c0.097,64.049 42.938,120.151 104.696,137.102l0,33.284c0,18.381 14.903,33.285 33.284,33.285c18.381,0 33.284,-14.904 33.284,-33.285l0,-31.269c71.281,-14.919 119.729,-81.309 112.237,-153.744c-7.509,-72.435 -68.535,-127.481 -141.361,-127.497c-41.735,0 -75.572,-33.837 -75.572,-75.572c0,-41.735 33.837,-75.572 75.572,-75.572c41.736,0 75.572,33.837 75.572,75.572c0,18.381 14.903,33.284 33.285,33.284c18.381,0 33.284,-14.903 33.284,-33.284c-0.098,-67.251 -47.212,-125.255 -113.017,-139.134l0,-30.294c0,-18.381 -14.903,-33.284 -33.284,-33.284c-18.381,0 -33.284,14.903 -33.284,33.284l0,32.326c-68.682,18.754 -112.887,85.437 -103.428,156.003c9.458,70.566 69.672,123.239 140.872,123.223c41.183,0 74.776,32.975 75.524,74.142c0.763,41.166 -31.611,75.361 -72.761,76.856Z" style="fill:#140a5d;fill-rule:nonzero;"/><path d="M1685.05,1490.43l-260.731,123.191c-35.999,-66.958 -105.054,-109.571 -181.048,-111.717l-240.693,-6.614c-38.111,-1.089 -75.507,-10.743 -109.392,-28.246l-24.492,-12.693c-125.401,-65.366 -274.871,-65.203 -400.142,0.422l1.528,-55.484c0.504,-18.381 -13.977,-33.691 -32.358,-34.194l-263.933,-7.265c-18.381,-0.504 -33.675,13.977 -34.178,32.358l-15.944,579.19c-0.503,18.381 13.977,33.691 32.358,34.195l263.933,7.264l0.911,0c18.039,0 32.796,-14.35 33.284,-32.374l0.764,-27.71l68.567,-36.713c26.913,-14.481 58.377,-17.926 87.777,-9.605l409.454,114.918c0.715,0.212 1.431,0.374 2.162,0.537c29.595,6.192 59.759,9.296 89.987,9.28c64.034,0.032 127.319,-13.766 185.518,-40.484c1.43,-0.65 2.811,-1.414 4.128,-2.276l593.671,-384.003c14.789,-9.572 19.567,-28.994 10.905,-44.336c-44.076,-78.204 -141.832,-107.994 -222.036,-67.641Zm-1493.92,447.517l14.106,-512.655l197.382,5.428l-14.107,512.671l-197.381,-5.444Zm1077.27,-8.711c-72.306,32.634 -153.062,41.637 -230.78,25.759l-408.348,-114.625c-45.961,-12.986 -95.156,-7.606 -137.2,15l-35.04,18.771l9.378,-340.854c111.034,-73.849 253.434,-81.439 371.684,-19.827l24.492,12.692c42.808,22.103 90.02,34.292 138.175,35.69l240.709,6.615c67.608,1.95 125.027,50.088 138.744,116.332l-358.537,-9.898c-18.381,-0.504 -33.674,13.993 -34.194,32.358c-0.504,18.381 13.993,33.69 32.358,34.194l395.672,10.889l0.926,0c18.024,-0.016 32.765,-14.367 33.252,-32.374c0.406,-14.464 -0.666,-28.945 -3.218,-43.182l267.428,-126.359c0.26,-0.114 0.52,-0.244 0.78,-0.374c37.932,-19.194 83.795,-12.774 114.999,16.106l-561.28,363.087Z" style="fill:#140a5d;fill-rule:nonzero;"/><path d="M1071.6,349.484l0,-316.2c0,-18.381 -14.904,-33.284 -33.285,-33.284c-18.381,0 -33.284,14.903 -33.284,33.284l0,316.2c0,18.381 14.903,33.284 33.284,33.284c18.381,0 33.285,-14.903 33.285,-33.284Z" style="fill:#140a5d;fill-rule:nonzero;"/><path d="M1321.23,349.484l0,-149.779c0,-18.381 -14.903,-33.284 -33.284,-33.284c-18.381,0 -33.284,14.903 -33.284,33.284l0,149.779c0,18.381 14.903,33.284 33.284,33.284c18.381,0 33.284,-14.903 33.284,-33.284Z" style="fill:#140a5d;fill-rule:nonzero;"/><path d="M821.964,349.484l0,-149.779c0,-18.381 -14.903,-33.284 -33.284,-33.284c-18.381,0 -33.284,14.903 -33.284,33.284l0,149.779c0,18.381 14.903,33.284 33.284,33.284c18.381,0 33.284,-14.903 33.284,-33.284Z" style="fill:#140a5d;fill-rule:nonzero;"/></svg>