<?xml version="1.0" encoding="UTF-8" standalone="no"?><!DOCTYPE svg PUBLIC "-//W3C//DTD SVG 1.1//EN" "http://www.w3.org/Graphics/SVG/1.1/DTD/svg11.dtd"><svg width="100%" height="100%" viewBox="0 0 2134 2134" version="1.1" xmlns="http://www.w3.org/2000/svg" xmlns:xlink="http://www.w3.org/1999/xlink" xml:space="preserve" xmlns:serif="http://www.serif.com/" style="fill-rule:evenodd;clip-rule:evenodd;stroke-linejoin:round;stroke-miterlimit:2;"><g><path d="M1466.67,1833.33l-533.334,0c-15.833,0 -30.633,4.034 -43.966,10.634c6.6,-13.334 10.633,-28.134 10.633,-43.967l0,-66.667c0,-25.7 -10.033,-48.933 -26,-66.666c16,-17.734 26,-40.967 26,-66.667l0,-66.667c0,-55.133 -44.867,-100 -100,-100l-18.3,0c69.367,-39.9 128.2,-95.833 171.533,-162.9c125.867,104.934 282.7,162.9 446.767,162.9c386,0 700,-314.033 700,-700c0,-386 -314,-700 -700,-700c-315.733,0 -586.033,206.3 -671.767,506.234c-59.933,-25.467 -125.8,-39.567 -194.9,-39.567c-275.7,0 -500,224.3 -500,500c0,185.267 101.534,346.967 251.634,433.333l-18.3,0c-55.134,0 -100,44.867 -100,100l0,66.667c0,25.7 10.033,48.933 26,66.667c-15.967,17.733 -26,40.966 -26,66.666l0,66.667c0,25.7 10.033,48.933 26,66.667c-15.967,17.733 -26,40.966 -26,66.666l0,66.667c0,55.133 44.866,100 100,100l533.333,0c25.7,0 48.933,-10.033 66.667,-26c17.733,16 40.966,26 66.666,26l533.334,0c55.133,0 100,-44.867 100,-100l0,-66.667c0,-55.133 -44.867,-100 -100,-100Zm-1200,0c-18.367,0 -33.334,-14.933 -33.334,-33.333l0,-66.667c0,-18.4 14.967,-33.333 33.334,-33.333l33.333,0l0,66.667l66.667,0l0,-66.667l66.666,0l0,66.667l66.667,0l0,-66.667l66.667,0l0,66.667l66.666,0l0,-66.667l66.667,0l0,66.667l66.667,0l0,-66.667l33.333,0c18.367,0 33.333,14.933 33.333,33.333l0,66.667c0,18.4 -14.966,33.333 -33.333,33.333l-533.333,0Zm1133.33,-1733.33c349.233,0 633.333,284.1 633.333,633.333c0,349.234 -284.1,633.334 -633.333,633.334c-152.7,0 -298.5,-55.5 -413.933,-155.8c30,-64.167 47.266,-135.467 47.266,-210.867c0,-182.3 -98.4,-341.667 -244.566,-429.033c73.4,-278.367 321.066,-470.967 611.233,-470.967Zm-1300,900c0,-238.933 194.4,-433.333 433.333,-433.333c238.934,0 433.334,194.4 433.334,433.333c0,238.933 -194.4,433.333 -433.334,433.333c-238.933,0 -433.333,-194.4 -433.333,-433.333Zm133.333,533.333c0,-18.4 14.967,-33.333 33.334,-33.333l33.333,0l0,66.667l66.667,0l0,-66.667l66.666,0l0,66.667l66.667,0l0,-66.667l66.667,0l0,66.667l66.666,0l0,-66.667l66.667,0l0,66.667l66.667,0l0,-66.667l33.333,0c18.367,0 33.333,14.933 33.333,33.333l0,66.667c0,18.4 -14.966,33.333 -33.333,33.333l-533.333,0c-18.367,0 -33.334,-14.933 -33.334,-33.333l0,-66.667Zm566.667,500l-533.333,0c-18.367,0 -33.334,-14.933 -33.334,-33.333l0,-66.667c0,-18.4 14.967,-33.333 33.334,-33.333l33.333,0l0,66.667l66.667,0l0,-66.667l66.666,0l0,66.667l66.667,0l0,-66.667l66.667,0l0,66.667l66.666,0l0,-66.667l66.667,0l0,66.667l66.667,0l0,-66.667l33.333,0c18.367,0 33.333,14.933 33.333,33.333l0,66.667c0,18.4 -14.966,33.333 -33.333,33.333Zm700,-33.333c0,18.4 -14.967,33.333 -33.333,33.333l-533.334,0c-18.366,0 -33.333,-14.933 -33.333,-33.333l0,-66.667c0,-18.4 14.967,-33.333 33.333,-33.333l33.334,0l0,66.667l66.666,0l0,-66.667l66.667,0l0,66.667l66.667,0l0,-66.667l66.666,0l0,66.667l66.667,0l0,-66.667l66.667,0l0,66.667l66.666,0l0,-66.667l33.334,0c18.366,0 33.333,14.933 33.333,33.333l0,66.667Z" style="fill:#140a5d;fill-rule:nonzero;"/><path d="M1275,249.067l-16.667,-64.534c-173.133,44.567 -316.633,170.3 -383.8,336.3l61.8,25c59.3,-146.5 185.9,-257.433 338.667,-296.766Z" style="fill:#140a5d;fill-rule:nonzero;"/><path d="M1400,233.333l0,-66.666c-23.7,0 -47.533,1.466 -70.8,4.4l8.267,66.133c20.566,-2.567 41.6,-3.867 62.533,-3.867Z" style="fill:#140a5d;fill-rule:nonzero;"/><path d="M1650,1166.47l33.4,57.666c174.733,-101.066 283.267,-289.133 283.267,-490.8l-66.667,0c0,177.934 -95.8,343.9 -250,433.134Z" style="fill:#140a5d;fill-rule:nonzero;"/><path d="M1525,1217.57l16.633,64.6c24.067,-6.234 47.9,-14.067 70.867,-23.367l-25.033,-61.8c-20.2,8.167 -41.234,15.1 -62.467,20.567Z" style="fill:#140a5d;fill-rule:nonzero;"/><path d="M1400,1233.33l0,66.667c23.7,0 47.533,-1.467 70.8,-4.4l-8.267,-66.133c-20.566,2.566 -41.6,3.866 -62.533,3.866Z" style="fill:#140a5d;fill-rule:nonzero;"/><path d="M1700,900c0,-73.533 -59.8,-133.333 -133.333,-133.333c-73.534,0 -133.334,59.8 -133.334,133.333c0,73.533 59.8,133.333 133.334,133.333c73.533,0 133.333,-59.8 133.333,-133.333Zm-200,0c0,-36.767 29.9,-66.667 66.667,-66.667c36.766,0 66.666,29.9 66.666,66.667c0,36.767 -29.9,66.667 -66.666,66.667c-36.767,0 -66.667,-29.9 -66.667,-66.667Z" style="fill:#140a5d;fill-rule:nonzero;"/><path d="M1100,566.667c0,73.533 59.8,133.333 133.333,133.333c73.534,0 133.334,-59.8 133.334,-133.333c0,-73.534 -59.8,-133.334 -133.334,-133.334c-73.533,0 -133.333,59.8 -133.333,133.334Zm200,0c0,36.766 -29.9,66.666 -66.667,66.666c-36.766,0 -66.666,-29.9 -66.666,-66.666c0,-36.767 29.9,-66.667 66.666,-66.667c36.767,0 66.667,29.9 66.667,66.667Z" style="fill:#140a5d;fill-rule:nonzero;"/><path d="M1042.92,1043.11l666.56,-666.559l47.133,47.133l-666.559,666.559l-47.134,-47.133Z" style="fill:#140a5d;fill-rule:nonzero;"/><rect x="1500" y="1500" width="466.667" height="66.667" style="fill:#140a5d;fill-rule:nonzero;"/><rect x="1500" y="1633.33" width="466.667" height="66.667" style="fill:#140a5d;fill-rule:nonzero;"/><rect x="1766.67" y="1766.67" width="66.667" height="66.667" style="fill:#140a5d;fill-rule:nonzero;"/><rect x="1900" y="1766.67" width="66.667" height="66.667" style="fill:#140a5d;fill-rule:nonzero;"/><rect x="1633.33" y="1766.67" width="66.667" height="66.667" style="fill:#140a5d;fill-rule:nonzero;"/><g><path d="M667.238,977.574c13.766,-19.167 22.1,-42.467 22.1,-67.8c0,-64.334 -52.334,-116.667 -116.667,-116.667l-16.667,0l0,-66.667l-66.666,0l0,66.667l-33.334,0c-18.4,0 -33.333,14.933 -33.333,33.333l0,333.334c0,18.4 14.933,33.333 33.333,33.333l33.334,0l0,66.667l66.666,0l0,-66.667l50,0c64.334,0 116.667,-52.333 116.667,-116.667c0,-41.8 -22.3,-78.266 -55.433,-98.866Zm-177.9,-117.8l83.333,0c27.567,0 50,22.433 50,50c0,27.566 -22.433,50 -50,50l-83.333,0l0,-100Zm116.666,266.666l-116.666,0l0,-100l116.666,0c27.567,0 50,22.434 50,50c0,27.567 -22.433,50 -50,50Z" style="fill:#140a5d;fill-rule:nonzero;"/></g></g></svg>