<?xml version="1.0" encoding="UTF-8" standalone="no"?><!DOCTYPE svg PUBLIC "-//W3C//DTD SVG 1.1//EN" "http://www.w3.org/Graphics/SVG/1.1/DTD/svg11.dtd"><svg width="100%" height="100%" viewBox="0 0 2000 2000" version="1.1" xmlns="http://www.w3.org/2000/svg" xmlns:xlink="http://www.w3.org/1999/xlink" xml:space="preserve" xmlns:serif="http://www.serif.com/" style="fill-rule:evenodd;clip-rule:evenodd;stroke-linejoin:round;stroke-miterlimit:2;"><g><g><path d="M1357.57,1774.47c5.733,-12.567 9.1,-26.434 9.1,-41.134c0,-35.5 -18.734,-66.566 -46.7,-84.3c8.266,-14.566 13.366,-31.133 13.366,-49.033c0,-55.133 -44.866,-100 -100,-100l-519.533,0l-123.567,-123.567c-6.233,-6.266 -14.733,-9.766 -23.566,-9.766l-566.667,0l0,66.666l552.867,0l229.266,229.267c11.5,11.533 17.867,26.833 17.867,43.1c0,33.6 -27.333,60.967 -60.967,60.967c-16.266,0 -31.566,-6.334 -43.1,-17.867l-139.033,-139.033l-47.133,47.133l139.033,139.033c22.733,22.734 52.6,35.4 84.533,36.834l0,0.566l583.334,0c27.566,0 50,22.434 50,50c0,27.567 -22.434,50 -50,50l-869.534,0l-190.233,-190.233c-6.233,-6.267 -14.733,-9.767 -23.567,-9.767l-233.333,0l0,66.667l219.533,0l190.234,190.233c6.233,6.267 14.733,9.767 23.566,9.767l883.334,0c64.333,0 116.666,-52.333 116.666,-116.667c0,-49.866 -31.633,-92.2 -75.766,-108.866Zm-528.267,-159l-48.833,-48.8l452.866,0c18.367,0 33.334,14.966 33.334,33.333c0,18.367 -14.967,33.333 -33.334,33.333l-389.366,0c-4.367,-6.3 -9.167,-12.333 -14.667,-17.866Zm437.367,151.2l-416.2,0c10,-18.2 16.2,-38.767 16.2,-60.967c0,-1.933 -0.467,-3.8 -0.567,-5.7l400.567,0c18.366,0 33.333,14.967 33.333,33.333c0,18.367 -14.967,33.334 -33.333,33.334Z" style="fill:#140a5d;fill-rule:nonzero;"/></g></g><g><g><path d="M683.333,66.667l869.534,0l190.233,190.233c6.233,6.267 14.733,9.767 23.567,9.767l233.333,0l0,-66.667l-219.533,0l-190.234,-190.233c-6.233,-6.267 -14.733,-9.767 -23.566,-9.767l-883.334,0c-64.333,0 -116.666,52.333 -116.666,116.667c0,49.866 31.633,92.233 75.766,108.866c-5.733,12.567 -9.1,26.434 -9.1,41.134c0,35.5 18.734,66.566 46.7,84.3c-8.266,14.566 -13.366,31.133 -13.366,49.033c0,55.133 44.866,100 100,100l519.533,0l123.567,123.567c6.233,6.266 14.733,9.766 23.566,9.766l566.667,0l0,-66.666l-552.867,0l-229.266,-229.267c-11.534,-11.533 -17.867,-26.833 -17.867,-43.1c0,-33.633 27.333,-60.967 60.967,-60.967c16.266,0 31.566,6.334 43.1,17.867l139.033,139.033l47.133,-47.133l-139.033,-139.033c-22.733,-22.734 -52.6,-35.4 -84.533,-36.834l0,-0.566l-583.334,0c-27.566,0 -50,-22.434 -50,-50c0,-27.567 22.434,-50 50,-50Zm487.367,317.866l48.833,48.8l-452.866,0c-18.367,0 -33.334,-14.966 -33.334,-33.333c0,-18.367 14.967,-33.333 33.334,-33.333l389.366,0c4.367,6.3 9.167,12.333 14.667,17.866Zm-437.367,-151.2l416.2,0c-10,18.2 -16.2,38.767 -16.2,60.967c0,1.933 0.467,3.8 0.567,5.7l-400.567,0c-18.366,0 -33.333,-14.967 -33.333,-33.333c0,-18.367 14.967,-33.334 33.333,-33.334Z" style="fill:#140a5d;fill-rule:nonzero;"/></g></g><g><g><path d="M552.767,377.2l-38.934,-54.1c-217.366,156.4 -347.166,409.467 -347.166,676.9c0,54.433 5.233,108.467 15.633,161.433l-99,-56.966l-33.267,57.766l166.667,95.9c5.167,2.967 10.933,4.434 16.633,4.434c7.334,0 14.667,-2.434 20.7,-7.2c10.7,-8.467 15.167,-22.6 11.234,-35.667c-21.2,-71 -31.934,-144.9 -31.934,-219.7c0,-246.067 119.434,-478.867 319.434,-622.8Z" style="fill:#140a5d;fill-rule:nonzero;"/></g></g><g><g><path d="M1951.13,871.833l-158.533,-100c-11.567,-7.233 -26.367,-6.766 -37.433,1.267c-11.034,8.067 -16.034,22.033 -12.634,35.267c16,62.2 24.134,126.7 24.134,191.633c0,246.067 -119.434,478.867 -319.434,622.8l38.934,54.1c217.366,-156.4 347.166,-409.467 347.166,-676.9c0,-43.667 -3.4,-87.167 -10.1,-130.033l92.334,58.233l35.566,-56.367Z" style="fill:#140a5d;fill-rule:nonzero;"/></g></g><g><g><path d="M1000,566.667c-238.933,0 -433.333,194.4 -433.333,433.333c0,238.933 194.4,433.333 433.333,433.333c238.933,0 433.333,-194.4 433.333,-433.333c0,-238.933 -194.4,-433.333 -433.333,-433.333Zm0,800c-202.167,0 -366.667,-164.5 -366.667,-366.667c0,-202.167 164.5,-366.667 366.667,-366.667c202.167,0 366.667,164.5 366.667,366.667c0,202.167 -164.5,366.667 -366.667,366.667Z" style="fill:#140a5d;fill-rule:nonzero;"/></g></g><g><g><path d="M1144.57,984.467c13.766,-19.167 22.1,-42.467 22.1,-67.8c0,-64.334 -52.334,-116.667 -116.667,-116.667l-16.667,0l0,-66.667l-66.666,0l0,66.667l-33.334,0c-18.4,0 -33.333,14.933 -33.333,33.333l0,333.334c0,18.4 14.933,33.333 33.333,33.333l33.334,0l0,66.667l66.666,0l0,-66.667l50,0c64.334,0 116.667,-52.333 116.667,-116.667c0,-41.8 -22.3,-78.266 -55.433,-98.866Zm-177.9,-117.8l83.333,0c27.567,0 50,22.433 50,50c0,27.566 -22.433,50 -50,50l-83.333,0l0,-100Zm116.666,266.666l-116.666,0l0,-100l116.666,0c27.567,0 50,22.434 50,50c0,27.567 -22.433,50 -50,50Z" style="fill:#140a5d;fill-rule:nonzero;"/></g></g></svg>