<?xml version="1.0" encoding="UTF-8" standalone="no"?><!DOCTYPE svg PUBLIC "-//W3C//DTD SVG 1.1//EN" "http://www.w3.org/Graphics/SVG/1.1/DTD/svg11.dtd"><svg width="100%" height="100%" viewBox="0 0 2134 2134" version="1.1" xmlns="http://www.w3.org/2000/svg" xmlns:xlink="http://www.w3.org/1999/xlink" xml:space="preserve" xmlns:serif="http://www.serif.com/" style="fill-rule:evenodd;clip-rule:evenodd;stroke-linejoin:round;stroke-miterlimit:2;"><g><path d="M133.333,1900c0.105,92.004 74.663,166.563 166.667,166.667l1233.33,0c257.713,0.025 466.65,-208.871 466.675,-466.584c0.017,-180.266 -103.8,-344.416 -266.675,-421.662l0,-678.421c0,-8.842 -3.512,-17.321 -9.762,-23.571l-400,-400c-6.25,-6.25 -14.729,-9.762 -23.571,-9.762l-1000,0c-92.004,0.104 -166.563,74.662 -166.667,166.666l0,1666.67Zm1800,-300c0,220.913 -179.087,400 -400,400c-220.912,0 -400,-179.087 -400,-400c0,-220.912 179.088,-400 400,-400c220.813,0.25 399.75,179.188 400,400Zm-600,-1419.53l286.196,286.196l-186.196,0c-55.204,-0.063 -99.937,-44.796 -100,-100l0,-186.196Zm-1133.33,52.862c0.062,-55.2 44.8,-99.937 100,-100l966.667,0l0,233.334c0.104,92.004 74.662,166.562 166.666,166.666l233.334,0l0,619.442c-246.938,-73.679 -506.846,66.771 -580.53,313.704c-60.945,204.263 24.284,423.854 207.067,533.521l-993.204,0c-55.2,-0.062 -99.938,-44.8 -100,-100l0,-1666.67Z" style="fill:#140a5d;fill-rule:nonzero;"/><path d="M666.667,700c0,18.408 14.925,33.333 33.333,33.333l800,0c18.408,0 33.333,-14.925 33.333,-33.333c0,-18.408 -14.925,-33.333 -33.333,-33.333l-800,0c-18.408,0 -33.333,14.925 -33.333,33.333Z" style="fill:#140a5d;fill-rule:nonzero;"/><path d="M366.667,933.333l666.666,0c18.409,0 33.334,-14.925 33.334,-33.333c0,-18.408 -14.925,-33.333 -33.334,-33.333l-666.666,0c-18.409,0 -33.334,14.925 -33.334,33.333c0,18.408 14.925,33.333 33.334,33.333Z" style="fill:#140a5d;fill-rule:nonzero;"/><path d="M1166.67,1066.67l-266.667,0c-18.408,0 -33.333,14.925 -33.333,33.333c0,18.408 14.925,33.333 33.333,33.333l266.667,0c18.408,0 33.333,-14.925 33.333,-33.333c0,-18.408 -14.925,-33.333 -33.333,-33.333Z" style="fill:#140a5d;fill-rule:nonzero;"/><path d="M366.667,1333.33l600,0c18.408,0 33.333,-14.925 33.333,-33.333c0,-18.408 -14.925,-33.333 -33.333,-33.333l-600,0c-18.409,0 -33.334,14.925 -33.334,33.333c0,18.408 14.925,33.333 33.334,33.333Z" style="fill:#140a5d;fill-rule:nonzero;"/><path d="M366.667,733.333l200,0c18.408,0 33.333,-14.925 33.333,-33.333c0,-18.408 -14.925,-33.333 -33.333,-33.333l-200,0c-18.409,0 -33.334,14.925 -33.334,33.333c0,18.408 14.925,33.333 33.334,33.333Z" style="fill:#140a5d;fill-rule:nonzero;"/><path d="M1500,866.667l-333.333,0c-18.409,0 -33.334,14.925 -33.334,33.333c0,18.408 14.925,33.333 33.334,33.333l333.333,0c18.408,0 33.333,-14.925 33.333,-33.333c0,-18.408 -14.925,-33.333 -33.333,-33.333Z" style="fill:#140a5d;fill-rule:nonzero;"/><path d="M366.667,1133.33l400,0c18.408,0 33.333,-14.925 33.333,-33.333c0,-18.408 -14.925,-33.333 -33.333,-33.333l-400,0c-18.409,0 -33.334,14.925 -33.334,33.333c0,18.408 14.925,33.333 33.334,33.333Z" style="fill:#140a5d;fill-rule:nonzero;"/><path d="M900,1666.67l-133.333,0c-18.409,0 -33.334,14.925 -33.334,33.333c0,18.408 14.925,33.333 33.334,33.333l133.333,0c18.408,0 33.333,-14.925 33.333,-33.333c0,-18.408 -14.925,-33.333 -33.333,-33.333Z" style="fill:#140a5d;fill-rule:nonzero;"/><path d="M366.667,1733.33l266.666,0c18.409,0 33.334,-14.925 33.334,-33.333c0,-18.408 -14.925,-33.333 -33.334,-33.333l-266.666,0c-18.409,0 -33.334,14.925 -33.334,33.333c0,18.408 14.925,33.333 33.334,33.333Z" style="fill:#140a5d;fill-rule:nonzero;"/><path d="M366.667,1533.33l200,0c18.408,0 33.333,-14.925 33.333,-33.333c0,-18.408 -14.925,-33.333 -33.333,-33.333l-200,0c-18.409,0 -33.334,14.925 -33.334,33.333c0,18.408 14.925,33.333 33.334,33.333Z" style="fill:#140a5d;fill-rule:nonzero;"/><path d="M366.667,533.333l400,0c18.408,0 33.333,-14.925 33.333,-33.333c0,-18.408 -14.925,-33.333 -33.333,-33.333l-400,0c-18.409,0 -33.334,14.925 -33.334,33.333c0,18.408 14.925,33.333 33.334,33.333Z" style="fill:#140a5d;fill-rule:nonzero;"/><path d="M900,1466.67l-200,0c-18.408,0 -33.333,14.925 -33.333,33.333c0,18.408 14.925,33.333 33.333,33.333l200,0c18.408,0 33.333,-14.925 33.333,-33.333c0,-18.408 -14.925,-33.333 -33.333,-33.333Z" style="fill:#140a5d;fill-rule:nonzero;"/><path d="M1345.33,1374.39c-14.146,11.783 -16.058,32.804 -4.275,46.946c0,0 0,0.004 0.004,0.004c0,0 126.388,151.871 166.542,199.85c4.046,4.837 10.65,10.466 22.213,11.958c1.166,0.15 2.345,0.183 3.52,0.183l233.334,0c18.408,0 33.333,-14.925 33.333,-33.333c0,-18.408 -14.925,-33.333 -33.333,-33.333l-217.721,0l-156.667,-188.009c-11.783,-14.141 -32.804,-16.054 -46.95,-4.266Z" style="fill:#140a5d;fill-rule:nonzero;"/></g></svg>